<?xml version="1.0" encoding="utf-8"?>
<!-- Generator: Adobe Illustrator 23.0.1, SVG Export Plug-In . SVG Version: 6.00 Build 0)  -->
<svg version="1.1" id="Layer_1" xmlns="http://www.w3.org/2000/svg" xmlns:xlink="http://www.w3.org/1999/xlink" x="0px" y="0px"
	 viewBox="0 0 1000 1000" style="enable-background:new 0 0 1000 1000;" xml:space="preserve">
<style type="text/css">
	.st0{fill:#FB6801;}
</style>
<g>
	<g>
		<path class="st0" d="M674.4,372.1c-4.1-10.4-8.9-17.9-16.7-25.7c-7.8-7.8-15.3-12.7-25.7-16.7c-7.9-3.1-19.7-6.7-41.5-7.7
			c-23.6-1.1-30.7-1.3-90.4-1.3c-59.8,0-66.8,0.2-90.4,1.3c-21.8,1-33.7,4.6-41.5,7.7c-10.4,4.1-17.9,8.9-25.7,16.7
			c-7.8,7.8-12.7,15.3-16.7,25.7c-3.1,7.9-6.7,19.7-7.7,41.5c-1.1,23.6-1.3,30.7-1.3,90.4c0,59.7,0.2,66.8,1.3,90.4
			c1,21.8,4.6,33.7,7.7,41.5c4.1,10.4,8.9,17.9,16.7,25.7c7.8,7.8,15.3,12.7,25.7,16.7c7.9,3.1,19.7,6.7,41.5,7.7
			c23.6,1.1,30.7,1.3,90.4,1.3c59.7,0,66.8-0.2,90.4-1.3c21.8-1,33.7-4.6,41.5-7.7c10.4-4.1,17.9-8.9,25.7-16.7
			c7.8-7.8,12.7-15.3,16.7-25.7c3.1-7.9,6.7-19.7,7.7-41.5c1.1-23.6,1.3-30.7,1.3-90.4c0-59.7-0.2-66.8-1.3-90.4
			C681.1,391.8,677.5,380,674.4,372.1z M500,619c-63.5,0-114.9-51.4-114.9-114.9c0-63.5,51.4-114.9,114.9-114.9
			c63.5,0,114.9,51.4,114.9,114.9C614.9,567.5,563.5,619,500,619z M619.4,411.5c-14.8,0-26.8-12-26.8-26.8c0-14.8,12-26.9,26.8-26.9
			c14.8,0,26.8,12,26.8,26.9C646.3,399.5,634.3,411.5,619.4,411.5z M574.6,504.1c0,41.2-33.4,74.6-74.6,74.6
			c-41.2,0-74.6-33.4-74.6-74.6c0-41.2,33.4-74.6,74.6-74.6C541.2,429.5,574.6,462.9,574.6,504.1z M500,129.7
			c-204.5,0-370.3,165.8-370.3,370.3c0,204.5,165.8,370.3,370.3,370.3c204.5,0,370.3-165.8,370.3-370.3
			C870.3,295.5,704.5,129.7,500,129.7z M722.4,596.3c-1.1,23.8-4.9,40.1-10.4,54.3c-5.7,14.7-13.4,27.2-25.8,39.6
			c-12.4,12.4-24.9,20.1-39.6,25.8c-14.2,5.5-30.5,9.3-54.3,10.4c-23.9,1.1-31.5,1.3-92.3,1.3c-60.8,0-68.4-0.3-92.3-1.3
			c-23.8-1.1-40.1-4.9-54.3-10.4c-14.7-5.7-27.2-13.4-39.6-25.8c-12.4-12.4-20.1-24.9-25.8-39.6c-5.5-14.2-9.3-30.5-10.4-54.3
			c-1.1-23.9-1.4-31.5-1.4-92.2c0-60.8,0.3-68.4,1.4-92.3c1.1-23.8,4.9-40.1,10.4-54.3c5.7-14.7,13.4-27.2,25.8-39.6
			c12.4-12.4,24.9-20.1,39.6-25.8c14.2-5.5,30.5-9.3,54.3-10.4c23.9-1.1,31.5-1.3,92.3-1.3c60.8,0,68.4,0.3,92.3,1.3
			c23.8,1.1,40.1,4.9,54.3,10.4c14.7,5.7,27.2,13.4,39.6,25.8c12.4,12.4,20.1,24.9,25.8,39.6c5.5,14.2,9.3,30.5,10.4,54.3
			c1.1,23.9,1.4,31.5,1.4,92.3C723.8,564.8,723.5,572.5,722.4,596.3z"/>
	</g>
</g>
</svg>
