<?xml version="1.0" encoding="utf-8"?>
<!-- Generator: Adobe Illustrator 24.2.0, SVG Export Plug-In . SVG Version: 6.00 Build 0)  -->
<svg version="1.1" id="Layer_1" xmlns="http://www.w3.org/2000/svg" xmlns:xlink="http://www.w3.org/1999/xlink" x="0px" y="0px"
	 viewBox="0 0 1000 1000" style="enable-background:new 0 0 1000 1000;" xml:space="preserve">
<style type="text/css">
	.st0{fill-rule:evenodd;clip-rule:evenodd;fill:url(#SVGID_1_);}
</style>
<g transform="matrix(1.25 0 0 1.25 130 50)">
	<linearGradient id="SVGID_1_" gradientUnits="userSpaceOnUse" x1="86.8453" y1="360" x2="532.8319" y2="360">
		<stop  offset="0" style="stop-color:#37AEE2"/>
		<stop  offset="1" style="stop-color:#1E96C8"/>
	</linearGradient>
	<path class="st0" d="M296,78.8C140.7,78.8,14.8,204.7,14.8,360S140.7,641.2,296,641.2S577.2,515.3,577.2,360S451.3,78.8,296,78.8z
		 M427.1,335.8c-8,53.4-17.3,106.6-26.4,159.7c-3.1,17.7-25.3,26.9-39.5,15.6c-34.1-23.1-68.5-45.9-102.2-69.5
		c-11-11.2-0.8-27.3,9.1-35.3c28.1-27.7,57.9-51.2,84.6-80.4c7.2-17.4-14-2.7-21.1,1.8c-38.5,26.5-76,54.7-116.6,78
		c-20.7,11.4-44.9,1.7-65.6-4.7c-18.6-7.7-45.8-15.4-29.8-27.2c32.9-18.1,69.6-33.2,103.8-48.4c59-24.9,118.2-49.3,178-72.1
		c11.6-3.9,32.5-7.7,34.6,9.6C434.9,287.2,430.3,311.5,427.1,335.8z"/>
</g>
</svg>
