<svg xmlns="http://www.w3.org/2000/svg" version="1.1" xmlns:xlink="http://www.w3.org/1999/xlink" xmlns:svgjs="http://svgjs.dev/svgjs" viewBox="0 0 800 800"><defs><linearGradient x1="50%" y1="0%" x2="50%" y2="100%" id="ffflurry-grad" gradientTransform="rotate(270)"><stop stop-color="#d3d4d4 " stop-opacity="1" offset="0%"></stop><stop stop-color="#b8fc26" stop-opacity="1" offset="45%"></stop><stop stop-color="#373737" stop-opacity="1" offset="100%"></stop></linearGradient></defs><rect width="100%" height="100%" fill="#d3d4d4 "></rect><g fill="url(#ffflurry-grad)"><rect width="486" height="3" x="-67" y="293.5" rx="1.5" transform="rotate(140, 176, 295)" opacity="0.73"></rect><rect width="207" height="3" x="66.5" y="598.5" rx="1.5" transform="rotate(140, 170, 600)" opacity="0.37"></rect><rect width="254" height="3" x="-19" y="739.5" rx="1.5" transform="rotate(140, 108, 741)" opacity="0.40"></rect><rect width="50" height="3" x="720" y="463.5" rx="1.5" transform="rotate(140, 745, 465)" opacity="0.71"></rect><rect width="462" height="3" x="234" y="716.5" rx="1.5" transform="rotate(140, 465, 718)" opacity="0.40"></rect><rect width="270" height="3" x="34" y="159.5" rx="1.5" transform="rotate(140, 169, 161)" opacity="0.86"></rect><rect width="249" height="3" x="-82.5" y="452.5" rx="1.5" transform="rotate(140, 42, 454)" opacity="0.13"></rect><rect width="56" height="3" x="551" y="760.5" rx="1.5" transform="rotate(140, 579, 762)" opacity="0.30"></rect><rect width="257" height="3" x="83.5" y="401.5" rx="1.5" transform="rotate(140, 212, 403)" opacity="0.95"></rect><rect width="547" height="3" x="254.5" y="608.5" rx="1.5" transform="rotate(140, 528, 610)" opacity="0.93"></rect><rect width="52" height="3" x="181" y="218.5" rx="1.5" transform="rotate(140, 207, 220)" opacity="0.51"></rect><rect width="215" height="3" x="348.5" y="605.5" rx="1.5" transform="rotate(140, 456, 607)" opacity="0.93"></rect><rect width="357" height="3" x="575.5" y="109.5" rx="1.5" transform="rotate(140, 754, 111)" opacity="0.59"></rect><rect width="368" height="3" x="297" y="777.5" rx="1.5" transform="rotate(140, 481, 779)" opacity="0.41"></rect><rect width="555" height="3" x="223.5" y="229.5" rx="1.5" transform="rotate(140, 501, 231)" opacity="0.79"></rect><rect width="319" height="3" x="-60.5" y="216.5" rx="1.5" transform="rotate(140, 99, 218)" opacity="0.09"></rect><rect width="146" height="3" x="521" y="211.5" rx="1.5" transform="rotate(140, 594, 213)" opacity="0.98"></rect><rect width="399" height="3" x="466.5" y="65.5" rx="1.5" transform="rotate(140, 666, 67)" opacity="0.76"></rect><rect width="38" height="3" x="15" y="48.5" rx="1.5" transform="rotate(140, 34, 50)" opacity="0.61"></rect><rect width="381" height="3" x="309.5" y="407.5" rx="1.5" transform="rotate(140, 500, 409)" opacity="0.67"></rect><rect width="62" height="3" x="209" y="659.5" rx="1.5" transform="rotate(140, 240, 661)" opacity="0.76"></rect><rect width="213" height="3" x="195.5" y="176.5" rx="1.5" transform="rotate(140, 302, 178)" opacity="0.33"></rect><rect width="289" height="3" x="255.5" y="732.5" rx="1.5" transform="rotate(140, 400, 734)" opacity="0.69"></rect><rect width="327" height="3" x="305.5" y="326.5" rx="1.5" transform="rotate(140, 469, 328)" opacity="0.46"></rect><rect width="381" height="3" x="-155.5" y="754.5" rx="1.5" transform="rotate(140, 35, 756)" opacity="0.22"></rect><rect width="686" height="3" x="356" y="320.5" rx="1.5" transform="rotate(140, 699, 322)" opacity="0.19"></rect><rect width="459" height="3" x="-116.5" y="120.5" rx="1.5" transform="rotate(140, 113, 122)" opacity="0.22"></rect><rect width="215" height="3" x="655.5" y="736.5" rx="1.5" transform="rotate(140, 763, 738)" opacity="0.11"></rect><rect width="123" height="3" x="302.5" y="574.5" rx="1.5" transform="rotate(140, 364, 576)" opacity="0.46"></rect><rect width="285" height="3" x="440.5" y="95.5" rx="1.5" transform="rotate(140, 583, 97)" opacity="0.66"></rect><rect width="705" height="3" x="-312.5" y="143.5" rx="1.5" transform="rotate(140, 40, 145)" opacity="0.16"></rect><rect width="567" height="3" x="12.5" y="753.5" rx="1.5" transform="rotate(140, 296, 755)" opacity="0.99"></rect><rect width="250" height="3" x="46" y="94.5" rx="1.5" transform="rotate(140, 171, 96)" opacity="0.29"></rect><rect width="470" height="3" x="295" y="142.5" rx="1.5" transform="rotate(140, 530, 144)" opacity="0.74"></rect><rect width="527" height="3" x="-33.5" y="140.5" rx="1.5" transform="rotate(140, 230, 142)" opacity="0.87"></rect><rect width="865" height="3" x="-326.5" y="386.5" rx="1.5" transform="rotate(140, 106, 388)" opacity="0.61"></rect><rect width="686" height="3" x="139" y="39.5" rx="1.5" transform="rotate(140, 482, 41)" opacity="0.24"></rect><rect width="103" height="3" x="397.5" y="506.5" rx="1.5" transform="rotate(140, 449, 508)" opacity="0.36"></rect><rect width="48" height="3" x="331" y="237.5" rx="1.5" transform="rotate(140, 355, 239)" opacity="0.86"></rect><rect width="654" height="3" x="351" y="194.5" rx="1.5" transform="rotate(140, 678, 196)" opacity="0.99"></rect><rect width="432" height="3" x="543" y="258.5" rx="1.5" transform="rotate(140, 759, 260)" opacity="0.63"></rect><rect width="122" height="3" x="234" y="612.5" rx="1.5" transform="rotate(140, 295, 614)" opacity="0.86"></rect><rect width="468" height="3" x="58" y="62.5" rx="1.5" transform="rotate(140, 292, 64)" opacity="0.75"></rect><rect width="71" height="3" x="398.5" y="130.5" rx="1.5" transform="rotate(140, 434, 132)" opacity="0.40"></rect><rect width="606" height="3" x="356" y="700.5" rx="1.5" transform="rotate(140, 659, 702)" opacity="0.54"></rect><rect width="401" height="3" x="387.5" y="567.5" rx="1.5" transform="rotate(140, 588, 569)" opacity="0.61"></rect><rect width="285" height="3" x="-17.5" y="178.5" rx="1.5" transform="rotate(140, 125, 180)" opacity="0.95"></rect><rect width="478" height="3" x="467" y="761.5" rx="1.5" transform="rotate(140, 706, 763)" opacity="0.15"></rect><rect width="281" height="3" x="-109.5" y="233.5" rx="1.5" transform="rotate(140, 31, 235)" opacity="0.31"></rect><rect width="357" height="3" x="372.5" y="477.5" rx="1.5" transform="rotate(140, 551, 479)" opacity="0.22"></rect><rect width="277" height="3" x="621.5" y="171.5" rx="1.5" transform="rotate(140, 760, 173)" opacity="0.50"></rect><rect width="404" height="3" x="-172" y="332.5" rx="1.5" transform="rotate(140, 30, 334)" opacity="0.72"></rect><rect width="113" height="3" x="249.5" y="417.5" rx="1.5" transform="rotate(140, 306, 419)" opacity="0.17"></rect><rect width="437" height="3" x="453.5" y="615.5" rx="1.5" transform="rotate(140, 672, 617)" opacity="0.24"></rect><rect width="193" height="3" x="11.5" y="42.5" rx="1.5" transform="rotate(140, 108, 44)" opacity="0.74"></rect><rect width="641" height="3" x="-224.5" y="292.5" rx="1.5" transform="rotate(140, 96, 294)" opacity="0.94"></rect><rect width="707" height="3" x="66.5" y="248.5" rx="1.5" transform="rotate(140, 420, 250)" opacity="0.34"></rect><rect width="767" height="3" x="-102.5" y="310.5" rx="1.5" transform="rotate(140, 281, 312)" opacity="0.82"></rect><rect width="197" height="3" x="-66.5" y="548.5" rx="1.5" transform="rotate(140, 32, 550)" opacity="0.74"></rect><rect width="98" height="3" x="191" y="546.5" rx="1.5" transform="rotate(140, 240, 548)" opacity="0.47"></rect><rect width="169" height="3" x="667.5" y="556.5" rx="1.5" transform="rotate(140, 752, 558)" opacity="0.68"></rect><rect width="136" height="3" x="518" y="25.5" rx="1.5" transform="rotate(140, 586, 27)" opacity="0.74"></rect><rect width="569" height="3" x="470.5" y="645.5" rx="1.5" transform="rotate(140, 755, 647)" opacity="0.65"></rect><rect width="122" height="3" x="317" y="53.5" rx="1.5" transform="rotate(140, 378, 55)" opacity="0.30"></rect><rect width="46" height="3" x="29" y="657.5" rx="1.5" transform="rotate(140, 52, 659)" opacity="0.45"></rect><rect width="386" height="3" x="335" y="703.5" rx="1.5" transform="rotate(140, 528, 705)" opacity="0.96"></rect><rect width="86" height="3" x="720" y="370.5" rx="1.5" transform="rotate(140, 763, 372)" opacity="0.16"></rect><rect width="739" height="3" x="16.5" y="392.5" rx="1.5" transform="rotate(140, 386, 394)" opacity="0.68"></rect><rect width="765" height="3" x="-234.5" y="487.5" rx="1.5" transform="rotate(140, 148, 489)" opacity="0.91"></rect><rect width="346" height="3" x="429" y="316.5" rx="1.5" transform="rotate(140, 602, 318)" opacity="0.32"></rect><rect width="478" height="3" x="404" y="414.5" rx="1.5" transform="rotate(140, 643, 416)" opacity="0.34"></rect><rect width="450" height="3" x="52" y="494.5" rx="1.5" transform="rotate(140, 277, 496)" opacity="0.17"></rect><rect width="655" height="3" x="-142.5" y="729.5" rx="1.5" transform="rotate(140, 185, 731)" opacity="0.96"></rect><rect width="75" height="3" x="616.5" y="515.5" rx="1.5" transform="rotate(140, 654, 517)" opacity="0.51"></rect><rect width="579" height="3" x="74.5" y="494.5" rx="1.5" transform="rotate(140, 364, 496)" opacity="0.98"></rect><rect width="51" height="3" x="70.5" y="580.5" rx="1.5" transform="rotate(140, 96, 582)" opacity="0.81"></rect><rect width="426" height="3" x="-8" y="37.5" rx="1.5" transform="rotate(140, 205, 39)" opacity="0.23"></rect><rect width="402" height="3" x="444" y="772.5" rx="1.5" transform="rotate(140, 645, 774)" opacity="0.88"></rect><rect width="265" height="3" x="460.5" y="660.5" rx="1.5" transform="rotate(140, 593, 662)" opacity="0.33"></rect><rect width="60" height="3" x="730" y="22.5" rx="1.5" transform="rotate(140, 760, 24)" opacity="0.17"></rect><rect width="469" height="3" x="122.5" y="664.5" rx="1.5" transform="rotate(140, 357, 666)" opacity="0.13"></rect><rect width="386" height="3" x="540" y="62.5" rx="1.5" transform="rotate(140, 733, 64)" opacity="0.30"></rect></g></svg>